<svg id="svg" version="1.1" xmlns="http://www.w3.org/2000/svg" xmlns:xlink="http://www.w3.org/1999/xlink" width="400" height="400" viewBox="0, 0, 400,400"><g id="svgg"><path id="path0" d="M-0.000 14.633 C -0.000 29.634,0.256 31.854,1.423 26.975 C 3.496 18.312,12.683 7.618,21.499 3.607 C 22.545 3.132,23.760 2.542,24.200 2.298 C 24.640 2.053,25.889 1.650,26.975 1.402 C 31.940 0.268,29.579 -0.000,14.633 -0.000 L 0.000 0.000 -0.000 14.633 M370.892 0.475 C 370.979 0.737,371.939 1.163,373.025 1.423 C 374.959 1.886,376.175 2.389,379.400 4.062 C 386.551 7.770,393.307 14.714,396.422 21.555 C 396.884 22.570,397.497 23.850,397.785 24.400 C 398.072 24.950,398.432 26.030,398.584 26.800 C 399.721 32.569,400.000 30.207,400.000 14.800 L 400.000 0.000 385.367 0.000 C 374.241 0.000,370.771 0.114,370.892 0.475 M79.800 128.206 C 67.504 129.511,55.592 137.046,53.756 144.680 C 53.608 145.296,53.142 146.487,52.721 147.328 C 51.566 149.633,51.605 160.686,52.781 164.352 C 53.231 165.756,53.606 167.106,53.613 167.352 C 53.619 167.598,54.068 168.700,54.609 169.800 C 55.150 170.900,55.594 172.093,55.596 172.451 C 55.598 172.809,55.863 173.320,56.185 173.587 C 56.506 173.854,56.884 174.461,57.025 174.936 C 57.366 176.091,59.120 178.669,60.600 180.191 C 61.260 180.869,62.505 182.229,63.367 183.212 C 64.229 184.196,66.029 186.205,67.367 187.678 C 68.705 189.150,70.610 191.270,71.600 192.389 C 72.590 193.508,74.210 195.291,75.200 196.352 C 77.828 199.168,83.260 205.155,84.836 206.973 C 85.586 207.838,86.920 209.303,87.800 210.229 C 89.291 211.798,90.652 213.303,96.075 219.383 C 98.555 222.163,103.131 227.147,106.460 230.693 C 107.747 232.065,108.800 233.285,108.800 233.406 C 108.800 233.527,110.308 235.195,112.150 237.113 C 113.993 239.031,116.577 241.860,117.893 243.400 C 119.209 244.940,120.940 246.830,121.739 247.600 C 122.538 248.370,123.193 249.121,123.196 249.269 C 123.198 249.416,124.325 250.704,125.700 252.131 C 128.443 254.977,133.228 260.221,134.800 262.104 C 135.350 262.763,136.610 264.154,137.600 265.194 C 138.590 266.235,140.120 267.923,141.000 268.946 C 141.880 269.969,143.259 271.508,144.063 272.366 C 145.673 274.082,157.086 286.616,157.925 287.590 C 158.214 287.926,159.294 289.115,160.325 290.233 C 161.356 291.351,163.638 293.871,165.395 295.833 C 170.437 301.462,175.443 306.533,177.227 307.819 C 178.129 308.468,179.328 309.405,179.892 309.900 C 180.456 310.395,181.136 310.800,181.404 310.800 C 181.673 310.800,182.321 311.135,182.846 311.545 C 183.371 311.955,184.250 312.427,184.800 312.594 C 185.350 312.761,186.050 313.101,186.356 313.349 C 186.661 313.597,188.101 314.120,189.556 314.510 C 191.010 314.901,192.830 315.391,193.600 315.601 C 199.025 317.074,210.268 315.231,216.000 311.929 C 216.330 311.738,217.230 311.269,218.000 310.885 C 222.964 308.409,229.042 302.734,238.837 291.427 C 239.587 290.561,241.235 288.796,242.500 287.504 C 243.765 286.212,244.800 285.023,244.800 284.861 C 244.800 284.699,245.475 283.935,246.300 283.162 C 247.125 282.389,248.970 280.426,250.400 278.798 C 251.830 277.171,253.360 275.466,253.800 275.009 C 254.240 274.552,256.040 272.587,257.800 270.641 C 259.560 268.695,261.810 266.237,262.800 265.180 C 263.790 264.122,265.029 262.749,265.554 262.129 C 267.457 259.877,271.841 255.009,273.600 253.196 C 274.590 252.175,276.480 250.106,277.800 248.597 C 280.335 245.700,281.595 244.302,286.660 238.769 C 292.793 232.068,296.364 228.130,301.000 222.950 C 302.540 221.229,304.700 218.839,305.800 217.638 C 306.900 216.437,308.037 215.172,308.326 214.827 C 308.616 214.482,310.056 212.903,311.526 211.318 C 312.997 209.733,315.306 207.213,316.657 205.718 C 320.717 201.227,327.284 193.922,327.875 193.239 C 328.180 192.888,329.968 190.980,331.850 189.000 C 333.732 187.020,335.390 185.198,335.536 184.950 C 335.681 184.703,336.970 183.198,338.400 181.606 C 339.830 180.015,341.405 178.256,341.900 177.698 C 342.395 177.140,342.800 176.422,342.800 176.103 C 342.800 175.784,343.148 175.035,343.573 174.437 C 343.999 173.840,344.466 172.875,344.613 172.292 C 344.759 171.709,345.131 171.023,345.439 170.767 C 345.748 170.511,346.006 170.009,346.013 169.651 C 346.020 169.293,346.390 168.010,346.836 166.800 C 348.675 161.803,348.963 148.401,347.278 146.272 C 347.072 146.012,346.680 145.104,346.406 144.254 C 346.132 143.403,345.613 142.386,345.254 141.994 C 344.894 141.602,344.150 140.629,343.600 139.833 C 342.410 138.109,340.463 135.958,339.588 135.400 C 339.243 135.180,338.372 134.640,337.651 134.200 C 336.930 133.760,335.979 133.096,335.537 132.725 C 335.096 132.353,334.221 131.936,333.595 131.799 C 332.968 131.661,332.241 131.290,331.979 130.974 C 331.717 130.658,331.209 130.394,330.851 130.387 C 330.493 130.380,329.210 130.017,328.000 129.581 C 322.532 127.610,323.296 127.621,199.800 127.660 C 109.494 127.689,83.563 127.807,79.800 128.206 M399.057 371.100 C 398.948 371.485,398.736 372.430,398.584 373.200 C 398.432 373.970,398.064 375.050,397.766 375.600 C 397.469 376.150,396.953 377.230,396.621 378.000 C 396.288 378.770,395.790 379.760,395.513 380.200 C 395.236 380.640,394.391 381.990,393.634 383.200 C 392.878 384.410,390.716 386.943,388.830 388.830 C 386.943 390.716,384.410 392.878,383.200 393.634 C 381.990 394.391,380.640 395.236,380.200 395.513 C 379.760 395.790,378.770 396.288,378.000 396.621 C 377.230 396.953,376.150 397.469,375.600 397.766 C 375.050 398.064,373.970 398.432,373.200 398.584 C 367.431 399.721,369.793 400.000,385.200 400.000 L 400.000 400.000 400.000 385.200 C 400.000 371.837,399.779 368.535,399.057 371.100 M0.000 385.367 L 0.000 400.000 14.633 400.000 C 29.579 400.000,31.940 399.732,26.975 398.598 C 25.889 398.350,24.640 397.947,24.200 397.702 C 23.760 397.458,22.590 396.889,21.600 396.440 C 14.390 393.164,6.836 385.610,3.560 378.400 C 3.111 377.410,2.542 376.240,2.298 375.800 C 2.053 375.360,1.650 374.111,1.402 373.025 C 0.268 368.060,0.000 370.421,0.000 385.367 " stroke="none" fill="#f9f9f9" fill-rule="evenodd"></path><path id="path1" d="M34.400 0.561 C 34.400 1.239,32.661 1.887,29.867 2.250 C 28.730 2.398,27.173 2.852,26.406 3.260 C 25.639 3.667,24.718 4.000,24.360 4.000 C 24.001 4.000,23.250 4.360,22.691 4.800 C 22.131 5.240,21.422 5.600,21.115 5.600 C 20.807 5.600,19.945 6.050,19.200 6.600 C 18.455 7.150,17.626 7.600,17.358 7.600 C 16.614 7.600,8.075 16.269,7.390 17.721 C 6.848 18.867,6.119 20.250,5.132 22.000 C 4.946 22.330,4.600 23.050,4.363 23.600 C 4.126 24.150,3.603 25.320,3.201 26.200 C 2.799 27.080,2.360 28.730,2.226 29.867 C 1.900 32.624,1.247 34.400,0.561 34.400 C 0.081 34.400,0.000 58.201,0.000 200.000 C 0.000 340.457,0.084 365.600,0.551 365.600 C 1.269 365.600,1.889 367.252,2.203 370.000 C 2.342 371.210,2.787 372.920,3.193 373.800 C 3.600 374.680,4.126 375.850,4.363 376.400 C 4.600 376.950,4.946 377.670,5.132 378.000 C 6.097 379.711,6.844 381.123,7.364 382.218 C 7.961 383.477,14.882 390.800,15.474 390.800 C 15.657 390.800,16.032 391.160,16.307 391.600 C 16.582 392.040,17.040 392.400,17.326 392.400 C 17.611 392.400,18.455 392.850,19.200 393.400 C 19.945 393.950,20.858 394.400,21.229 394.400 C 21.599 394.400,22.125 394.669,22.398 394.997 C 22.670 395.326,23.637 395.790,24.547 396.030 C 25.456 396.269,26.560 396.695,27.000 396.975 C 27.440 397.255,28.880 397.618,30.200 397.781 C 32.890 398.114,35.200 398.945,35.200 399.580 C 35.200 399.873,85.066 400.000,200.000 400.000 C 314.934 400.000,364.800 399.873,364.800 399.580 C 364.800 398.914,367.206 398.083,370.017 397.779 C 371.438 397.625,372.870 397.268,373.200 396.987 C 373.530 396.705,374.544 396.276,375.453 396.034 C 376.363 395.792,377.330 395.326,377.602 394.997 C 377.875 394.669,378.401 394.400,378.771 394.400 C 379.142 394.400,380.055 393.950,380.800 393.400 C 381.545 392.850,382.384 392.400,382.664 392.400 C 382.943 392.400,383.365 392.040,383.600 391.600 C 383.835 391.160,384.205 390.800,384.421 390.800 C 384.882 390.800,390.800 384.958,390.800 384.503 C 390.800 384.332,391.160 383.968,391.600 383.693 C 392.040 383.418,392.400 382.960,392.400 382.674 C 392.400 382.389,392.850 381.545,393.400 380.800 C 393.950 380.055,394.400 379.142,394.400 378.771 C 394.400 378.401,394.669 377.875,394.997 377.602 C 395.326 377.330,395.792 376.363,396.034 375.453 C 396.276 374.544,396.705 373.530,396.987 373.200 C 397.268 372.870,397.625 371.438,397.779 370.017 C 398.083 367.206,398.914 364.800,399.580 364.800 C 399.873 364.800,400.000 314.934,400.000 200.000 C 400.000 85.066,399.873 35.200,399.580 35.200 C 398.944 35.200,398.114 32.889,397.783 30.200 C 397.621 28.880,397.153 27.173,396.744 26.406 C 396.335 25.639,396.000 24.718,396.000 24.360 C 396.000 24.001,395.640 23.250,395.200 22.691 C 394.760 22.131,394.400 21.422,394.400 21.115 C 394.400 20.807,393.950 19.945,393.400 19.200 C 392.850 18.455,392.400 17.616,392.400 17.336 C 392.400 17.057,392.040 16.635,391.600 16.400 C 391.160 16.165,390.800 15.785,390.800 15.556 C 390.800 14.904,383.576 8.009,382.218 7.364 C 381.123 6.844,379.711 6.097,378.000 5.132 C 377.670 4.946,376.950 4.600,376.400 4.363 C 375.850 4.126,374.680 3.600,373.800 3.193 C 372.920 2.787,371.210 2.342,370.000 2.203 C 367.252 1.889,365.600 1.269,365.600 0.551 C 365.600 0.084,340.457 0.000,200.000 0.000 C 58.201 0.000,34.400 0.081,34.400 0.561 M321.263 126.464 C 322.068 126.830,323.958 127.255,325.463 127.410 C 326.968 127.564,328.740 128.007,329.400 128.393 C 330.060 128.779,331.200 129.207,331.932 129.344 C 332.665 129.481,333.725 129.955,334.286 130.396 C 334.848 130.838,335.573 131.200,335.896 131.200 C 336.505 131.200,337.623 132.026,340.927 134.915 C 343.269 136.963,345.196 138.915,345.198 139.242 C 345.199 139.374,345.650 139.969,346.200 140.562 C 346.750 141.156,347.200 142.042,347.200 142.532 C 347.200 143.021,347.534 143.708,347.942 144.058 C 348.442 144.486,348.778 145.518,348.970 147.219 C 349.128 148.608,349.513 150.112,349.828 150.561 C 350.647 151.730,350.630 159.493,349.807 160.669 C 349.480 161.135,349.102 162.840,348.967 164.458 C 348.816 166.257,348.449 167.788,348.023 168.400 C 347.639 168.950,347.200 170.069,347.047 170.887 C 346.894 171.705,346.515 172.628,346.204 172.939 C 345.894 173.249,345.524 173.962,345.384 174.522 C 345.243 175.083,344.784 175.852,344.364 176.233 C 343.944 176.613,343.600 177.247,343.600 177.641 C 343.600 178.036,343.138 178.863,342.572 179.479 C 339.200 183.157,334.259 188.462,332.100 190.724 C 330.725 192.164,329.600 193.426,329.600 193.527 C 329.600 193.628,328.565 194.891,327.300 196.332 C 325.277 198.637,323.325 200.710,316.811 207.472 C 315.925 208.391,315.200 209.311,315.200 209.516 C 315.200 209.721,314.030 210.979,312.600 212.311 C 311.170 213.643,310.000 214.935,310.000 215.181 C 310.000 215.603,307.780 218.028,301.500 224.462 C 300.015 225.983,298.800 227.402,298.800 227.614 C 298.800 227.826,298.559 228.000,298.264 228.000 C 297.970 228.000,297.542 228.405,297.314 228.900 C 296.822 229.966,291.315 236.225,287.500 240.052 C 286.015 241.542,284.800 242.938,284.800 243.154 C 284.800 243.370,284.440 243.660,284.000 243.800 C 283.560 243.940,283.200 244.291,283.200 244.581 C 283.200 244.871,282.750 245.403,282.200 245.763 C 281.650 246.124,281.200 246.641,281.200 246.912 C 281.200 247.183,280.563 247.990,279.785 248.704 C 279.007 249.418,277.342 251.221,276.085 252.709 C 273.419 255.867,271.874 257.537,267.100 262.419 C 265.175 264.388,263.599 266.134,263.598 266.299 C 263.597 266.465,263.012 267.238,262.298 268.017 C 261.584 268.797,259.830 270.764,258.400 272.390 C 256.970 274.015,254.315 276.850,252.500 278.690 C 250.685 280.529,249.200 282.195,249.200 282.390 C 249.200 282.586,248.849 282.857,248.420 282.994 C 247.992 283.130,247.530 283.592,247.394 284.020 C 247.257 284.449,246.900 284.800,246.600 284.800 C 246.300 284.800,245.928 285.205,245.773 285.700 C 245.619 286.195,245.371 286.690,245.222 286.800 C 245.073 286.910,243.903 288.170,242.621 289.600 C 232.399 301.003,224.382 309.078,222.500 309.866 C 221.785 310.166,221.200 310.576,221.200 310.778 C 221.200 310.981,220.795 311.273,220.300 311.428 C 219.805 311.583,218.971 312.045,218.446 312.455 C 217.921 312.865,217.191 313.200,216.824 313.200 C 216.456 313.200,215.545 313.650,214.800 314.200 C 214.055 314.750,213.006 315.200,212.470 315.200 C 211.933 315.200,210.845 315.601,210.051 316.092 C 207.870 317.440,191.397 317.484,189.200 316.149 C 188.430 315.680,187.143 315.181,186.340 315.038 C 185.537 314.895,184.670 314.525,184.413 314.215 C 184.155 313.905,183.416 313.535,182.769 313.393 C 182.122 313.251,181.409 312.790,181.183 312.367 C 180.957 311.945,180.429 311.600,180.010 311.600 C 179.590 311.600,179.131 311.413,178.990 311.184 C 178.849 310.955,178.046 310.334,177.207 309.804 C 175.252 308.570,162.325 295.437,161.119 293.460 C 160.532 292.497,159.340 291.110,157.702 289.485 C 156.767 288.558,156.002 287.587,156.002 287.327 C 156.001 287.067,155.640 286.740,155.200 286.600 C 154.760 286.460,154.400 286.180,154.400 285.976 C 154.400 285.773,153.081 284.279,151.468 282.656 C 149.856 281.033,147.210 278.196,145.589 276.353 C 143.968 274.509,142.407 272.762,142.121 272.471 C 141.834 272.181,141.600 271.686,141.600 271.371 C 141.600 271.057,141.375 270.796,141.100 270.791 C 140.825 270.787,140.060 270.144,139.400 269.363 C 138.740 268.582,137.030 266.703,135.600 265.188 C 130.406 259.684,127.405 256.360,124.873 253.304 C 124.283 252.592,123.395 251.548,122.900 250.984 C 122.405 250.420,122.000 249.788,122.000 249.579 C 122.000 249.371,121.713 249.200,121.363 249.200 C 121.012 249.200,120.633 248.846,120.519 248.413 C 120.406 247.981,119.973 247.518,119.557 247.386 C 119.141 247.254,118.800 246.973,118.800 246.761 C 118.800 246.549,117.945 245.524,116.900 244.482 C 115.855 243.441,113.830 241.265,112.400 239.647 C 108.052 234.725,107.633 234.260,105.988 232.528 C 105.115 231.609,104.400 230.748,104.400 230.615 C 104.400 230.482,102.825 228.776,100.900 226.823 C 96.391 222.249,91.911 217.290,90.726 215.561 C 89.796 214.204,88.023 212.287,81.621 205.713 C 79.762 203.805,77.180 200.974,75.882 199.422 C 74.585 197.870,73.270 196.456,72.961 196.280 C 72.653 196.104,72.400 195.763,72.400 195.522 C 72.400 195.281,72.027 194.705,71.570 194.242 C 63.716 186.271,56.400 177.996,56.400 177.085 C 56.400 176.888,56.040 176.269,55.600 175.709 C 55.160 175.150,54.800 174.381,54.800 174.000 C 54.800 173.619,54.429 172.836,53.976 172.260 C 53.523 171.684,53.043 170.535,52.910 169.706 C 52.777 168.878,52.355 167.750,51.972 167.200 C 51.505 166.530,51.188 165.019,51.011 162.623 C 50.865 160.656,50.563 158.704,50.339 158.286 C 49.015 155.813,51.861 142.882,54.256 140.487 C 54.555 140.188,54.800 139.805,54.800 139.637 C 54.800 139.258,59.123 134.855,60.436 133.896 C 60.966 133.510,61.966 132.745,62.658 132.196 C 63.350 131.648,64.148 131.200,64.432 131.200 C 64.716 131.200,65.354 130.819,65.849 130.354 C 66.400 129.836,67.498 129.424,68.675 129.293 C 69.836 129.163,70.791 128.808,71.081 128.398 C 71.432 127.902,72.386 127.656,74.605 127.488 C 76.279 127.362,77.935 127.020,78.285 126.729 C 79.836 125.441,318.437 125.181,321.263 126.464 " stroke="none" fill="#040404" fill-rule="evenodd"></path><path id="path2" d="M29.077 0.543 C 28.962 0.842,28.105 1.209,27.171 1.358 C 26.237 1.508,25.007 1.879,24.437 2.184 C 23.866 2.489,22.545 3.128,21.499 3.605 C 12.678 7.629,2.592 19.457,1.347 27.239 C 1.204 28.135,0.842 28.962,0.543 29.077 C -0.063 29.310,-0.215 31.600,0.376 31.600 C 0.952 31.600,1.181 31.047,1.645 28.541 C 2.902 21.739,10.431 11.024,16.800 6.973 C 20.198 4.811,26.238 2.071,28.541 1.645 C 31.047 1.181,31.600 0.952,31.600 0.376 C 31.600 -0.215,29.310 -0.063,29.077 0.543 M368.497 0.492 C 368.588 0.763,369.908 1.275,371.431 1.631 C 383.705 4.495,396.407 17.384,398.436 29.037 C 398.734 30.752,399.067 31.600,399.441 31.600 C 400.157 31.600,400.167 30.110,399.455 29.398 C 399.156 29.099,398.789 28.093,398.641 27.163 C 398.492 26.234,398.121 25.007,397.816 24.437 C 397.511 23.866,396.884 22.570,396.422 21.555 C 392.354 12.621,380.627 2.605,372.761 1.347 C 371.865 1.204,371.038 0.842,370.923 0.543 C 370.657 -0.150,368.267 -0.200,368.497 0.492 M82.341 126.993 C 82.232 127.102,80.086 127.487,77.571 127.849 C 75.057 128.211,72.332 128.843,71.516 129.253 C 70.700 129.664,69.776 130.000,69.464 130.000 C 68.675 130.000,64.886 131.831,63.200 133.027 C 62.430 133.573,61.194 134.405,60.454 134.877 C 51.402 140.639,48.461 157.394,54.184 170.600 C 55.719 174.141,57.939 178.191,58.963 179.319 C 59.603 180.024,61.583 182.220,63.363 184.200 C 65.143 186.180,66.703 187.890,66.830 188.000 C 67.058 188.199,74.260 196.151,76.584 198.771 C 79.657 202.235,86.299 209.520,87.390 210.623 C 88.056 211.295,89.212 212.555,89.960 213.423 C 91.848 215.611,96.530 220.843,99.406 223.978 C 100.729 225.420,102.529 227.398,103.406 228.372 C 106.093 231.360,109.670 235.251,112.435 238.195 C 113.884 239.738,115.338 241.401,115.666 241.890 C 115.993 242.380,117.778 244.369,119.631 246.311 C 121.484 248.253,124.080 251.073,125.400 252.577 C 126.720 254.082,128.900 256.503,130.245 257.957 C 131.589 259.410,133.463 261.500,134.409 262.600 C 135.355 263.700,137.045 265.573,138.164 266.762 C 140.974 269.746,141.568 270.397,146.800 276.232 C 149.330 279.054,152.750 282.819,154.400 284.599 C 156.050 286.378,158.660 289.248,160.200 290.975 C 174.142 306.615,176.759 309.081,182.853 312.324 C 189.277 315.742,191.248 316.199,199.600 316.199 C 213.733 316.201,222.781 311.012,236.600 294.984 C 237.920 293.453,239.930 291.210,241.068 290.000 C 242.206 288.790,243.706 287.080,244.402 286.200 C 245.099 285.320,245.968 284.316,246.334 283.969 C 247.634 282.736,255.531 274.172,257.002 272.400 C 257.823 271.410,258.621 270.510,258.776 270.400 C 258.930 270.290,260.829 268.220,262.995 265.800 C 265.160 263.380,267.865 260.410,269.005 259.200 C 270.145 257.990,271.871 256.110,272.839 255.022 C 273.808 253.935,274.870 252.752,275.200 252.395 C 275.530 252.038,276.880 250.519,278.200 249.021 C 279.520 247.523,281.410 245.446,282.400 244.406 C 283.390 243.367,284.910 241.725,285.778 240.758 C 286.646 239.791,288.895 237.290,290.775 235.200 C 292.656 233.110,294.736 230.782,295.397 230.026 C 296.059 229.270,299.030 226.012,302.000 222.786 C 304.970 219.561,309.380 214.710,311.800 212.007 C 314.220 209.303,316.560 206.711,317.000 206.246 C 317.440 205.782,321.205 201.621,325.366 197.001 C 329.527 192.380,333.053 188.510,333.202 188.400 C 338.917 184.177,346.649 171.797,348.066 164.600 C 348.283 163.500,348.717 161.290,349.030 159.689 C 349.751 156.008,349.743 153.970,349.000 151.200 C 348.675 149.990,348.407 148.573,348.405 148.050 C 348.364 139.896,335.718 129.857,322.800 127.723 C 318.745 127.053,82.996 126.337,82.341 126.993 M320.400 128.206 C 323.370 128.526,326.790 129.145,328.000 129.581 C 329.210 130.017,330.493 130.380,330.851 130.387 C 331.209 130.394,331.717 130.658,331.979 130.974 C 332.241 131.290,332.968 131.661,333.595 131.799 C 334.221 131.936,335.096 132.353,335.537 132.725 C 335.979 133.096,336.930 133.760,337.651 134.200 C 338.372 134.640,339.243 135.180,339.588 135.400 C 340.463 135.958,342.410 138.109,343.600 139.833 C 344.150 140.629,344.894 141.602,345.254 141.994 C 345.613 142.386,346.132 143.403,346.406 144.254 C 346.680 145.104,347.072 146.012,347.278 146.272 C 348.963 148.401,348.675 161.803,346.836 166.800 C 346.390 168.010,346.020 169.293,346.013 169.651 C 346.006 170.009,345.748 170.511,345.439 170.767 C 345.131 171.023,344.759 171.709,344.613 172.292 C 344.466 172.875,343.999 173.840,343.573 174.437 C 343.148 175.035,342.800 175.784,342.800 176.103 C 342.800 176.422,342.395 177.140,341.900 177.698 C 341.405 178.256,339.830 180.015,338.400 181.606 C 336.970 183.198,335.681 184.703,335.536 184.950 C 335.390 185.198,333.732 187.020,331.850 189.000 C 329.968 190.980,328.180 192.888,327.875 193.239 C 327.284 193.922,320.717 201.227,316.657 205.718 C 315.306 207.213,312.997 209.733,311.526 211.318 C 310.056 212.903,308.616 214.482,308.326 214.827 C 308.037 215.172,306.900 216.437,305.800 217.638 C 304.700 218.839,302.540 221.229,301.000 222.950 C 296.364 228.130,292.793 232.068,286.660 238.769 C 281.595 244.302,280.335 245.700,277.800 248.597 C 276.480 250.106,274.590 252.175,273.600 253.196 C 271.841 255.009,267.457 259.877,265.554 262.129 C 265.029 262.749,263.790 264.122,262.800 265.180 C 261.810 266.237,259.560 268.695,257.800 270.641 C 256.040 272.587,254.240 274.552,253.800 275.009 C 253.360 275.466,251.830 277.171,250.400 278.798 C 248.970 280.426,247.125 282.389,246.300 283.162 C 245.475 283.935,244.800 284.699,244.800 284.861 C 244.800 285.023,243.765 286.212,242.500 287.504 C 241.235 288.796,239.587 290.561,238.837 291.427 C 229.042 302.734,222.964 308.409,218.000 310.885 C 217.230 311.269,216.330 311.738,216.000 311.929 C 210.268 315.231,199.025 317.074,193.600 315.601 C 192.830 315.391,191.010 314.901,189.556 314.510 C 188.101 314.120,186.661 313.597,186.356 313.349 C 186.050 313.101,185.350 312.761,184.800 312.594 C 184.250 312.427,183.371 311.955,182.846 311.545 C 182.321 311.135,181.673 310.800,181.404 310.800 C 181.136 310.800,180.456 310.395,179.892 309.900 C 179.328 309.405,178.129 308.468,177.227 307.819 C 175.443 306.533,170.437 301.462,165.395 295.833 C 163.638 293.871,161.356 291.351,160.325 290.233 C 159.294 289.115,158.214 287.926,157.925 287.590 C 157.086 286.616,145.673 274.082,144.063 272.366 C 143.259 271.508,141.880 269.969,141.000 268.946 C 140.120 267.923,138.590 266.235,137.600 265.194 C 136.610 264.154,135.350 262.763,134.800 262.104 C 133.228 260.221,128.443 254.977,125.700 252.131 C 124.325 250.704,123.198 249.416,123.196 249.269 C 123.193 249.121,122.538 248.370,121.739 247.600 C 120.940 246.830,119.209 244.940,117.893 243.400 C 116.577 241.860,113.993 239.031,112.150 237.113 C 110.308 235.195,108.800 233.527,108.800 233.406 C 108.800 233.285,107.747 232.065,106.460 230.693 C 103.131 227.147,98.555 222.163,96.075 219.383 C 90.652 213.303,89.291 211.798,87.800 210.229 C 86.920 209.303,85.586 207.838,84.836 206.973 C 83.260 205.155,77.828 199.168,75.200 196.352 C 74.210 195.291,72.590 193.508,71.600 192.389 C 70.610 191.270,68.705 189.150,67.367 187.678 C 66.029 186.205,64.229 184.196,63.367 183.212 C 62.505 182.229,61.260 180.869,60.600 180.191 C 59.120 178.669,57.366 176.091,57.025 174.936 C 56.884 174.461,56.506 173.854,56.185 173.587 C 55.863 173.320,55.598 172.809,55.596 172.451 C 55.594 172.093,55.150 170.900,54.609 169.800 C 54.068 168.700,53.619 167.598,53.613 167.352 C 53.606 167.106,53.231 165.756,52.781 164.352 C 51.605 160.686,51.566 149.633,52.721 147.328 C 53.142 146.487,53.608 145.296,53.756 144.680 C 55.592 137.046,67.504 129.511,79.800 128.206 C 87.417 127.398,312.901 127.397,320.400 128.206 M0.000 369.524 C 0.000 370.179,0.245 370.808,0.543 370.923 C 0.842 371.038,1.209 371.895,1.358 372.829 C 1.508 373.763,1.879 374.993,2.184 375.563 C 2.489 376.134,3.107 377.410,3.558 378.400 C 6.848 385.622,14.378 393.152,21.600 396.442 C 22.590 396.893,23.866 397.511,24.437 397.816 C 25.007 398.121,26.237 398.492,27.171 398.642 C 28.105 398.791,28.962 399.158,29.077 399.457 C 29.358 400.189,31.600 400.175,31.600 399.441 C 31.600 399.065,30.732 398.731,28.948 398.420 C 26.306 397.960,20.475 395.370,16.800 393.023 C 10.358 388.909,3.448 379.067,1.640 371.431 C 0.951 368.520,0.000 367.414,0.000 369.524 M399.014 368.777 C 398.886 368.984,398.591 370.181,398.359 371.437 C 398.127 372.693,397.591 374.365,397.169 375.154 C 396.746 375.943,396.400 376.729,396.400 376.901 C 396.400 381.154,381.154 396.400,376.901 396.400 C 376.729 396.400,375.931 396.752,375.129 397.182 C 374.326 397.613,372.483 398.171,371.035 398.423 C 369.264 398.732,368.400 399.065,368.400 399.441 C 368.400 400.157,369.890 400.167,370.602 399.455 C 370.901 399.156,371.907 398.789,372.837 398.641 C 373.766 398.492,374.993 398.113,375.563 397.798 C 376.134 397.483,377.230 396.953,378.000 396.621 C 378.770 396.288,379.760 395.790,380.200 395.513 C 380.640 395.236,381.990 394.391,383.200 393.634 C 386.032 391.865,391.865 386.032,393.634 383.200 C 394.391 381.990,395.236 380.640,395.513 380.200 C 395.790 379.760,396.288 378.770,396.621 378.000 C 396.953 377.230,397.483 376.134,397.798 375.563 C 398.113 374.993,398.492 373.766,398.641 372.837 C 398.789 371.907,399.156 370.901,399.455 370.602 C 400.074 369.984,400.194 368.400,399.624 368.400 C 399.417 368.400,399.142 368.570,399.014 368.777 " stroke="none" fill="#848484" fill-rule="evenodd"></path><path id="path3" d="M32.000 0.573 C 32.000 1.205,31.474 1.409,28.800 1.815 C 27.810 1.965,26.050 2.518,24.888 3.044 C 23.727 3.570,22.711 4.000,22.631 4.000 C 22.552 4.000,20.982 4.842,19.143 5.871 C 12.875 9.380,5.589 17.774,3.611 23.765 C 3.353 24.548,2.987 25.285,2.798 25.401 C 2.609 25.518,2.255 26.646,2.011 27.907 C 1.249 31.855,1.199 32.000,0.592 32.000 C 0.201 32.000,0.000 32.407,0.000 33.200 C 0.000 36.414,1.764 33.772,2.226 29.867 C 2.360 28.730,2.799 27.080,3.201 26.200 C 3.603 25.320,4.126 24.150,4.363 23.600 C 4.600 23.050,4.946 22.330,5.132 22.000 C 6.119 20.250,6.848 18.867,7.390 17.721 C 8.075 16.269,16.614 7.600,17.358 7.600 C 17.626 7.600,18.455 7.150,19.200 6.600 C 19.945 6.050,20.807 5.600,21.115 5.600 C 21.422 5.600,22.131 5.240,22.691 4.800 C 23.250 4.360,24.001 4.000,24.360 4.000 C 24.718 4.000,25.639 3.667,26.406 3.260 C 27.173 2.852,28.730 2.398,29.867 2.250 C 33.818 1.736,36.389 0.000,33.200 0.000 C 32.425 0.000,32.000 0.203,32.000 0.573 M365.600 0.551 C 365.600 1.269,367.252 1.889,370.000 2.203 C 371.210 2.342,372.920 2.787,373.800 3.193 C 374.680 3.600,375.850 4.126,376.400 4.363 C 376.950 4.600,377.670 4.946,378.000 5.132 C 379.711 6.097,381.123 6.844,382.218 7.364 C 383.576 8.009,390.800 14.904,390.800 15.556 C 390.800 15.785,391.160 16.165,391.600 16.400 C 392.040 16.635,392.400 17.057,392.400 17.336 C 392.400 17.616,392.850 18.455,393.400 19.200 C 393.950 19.945,394.400 20.807,394.400 21.115 C 394.400 21.422,394.760 22.131,395.200 22.691 C 395.640 23.250,396.000 24.001,396.000 24.360 C 396.000 24.718,396.335 25.639,396.744 26.406 C 397.153 27.173,397.621 28.880,397.783 30.200 C 398.114 32.889,398.944 35.200,399.580 35.200 C 400.287 35.200,400.047 32.847,399.259 32.059 C 398.834 31.634,398.399 30.412,398.236 29.185 C 397.900 26.653,394.906 19.792,393.342 17.969 C 393.044 17.621,392.800 17.123,392.800 16.862 C 392.800 16.222,383.806 7.200,383.168 7.200 C 382.890 7.200,382.379 6.951,382.031 6.647 C 380.950 5.701,373.313 2.000,372.442 2.000 C 370.932 2.000,368.000 1.054,368.000 0.567 C 368.000 0.204,367.569 0.000,366.800 0.000 C 366.047 0.000,365.600 0.205,365.600 0.551 M84.561 125.966 C 80.777 126.123,78.713 126.374,78.285 126.729 C 77.935 127.020,76.279 127.362,74.605 127.488 C 72.386 127.656,71.432 127.902,71.081 128.398 C 70.791 128.808,69.836 129.163,68.675 129.293 C 67.498 129.424,66.400 129.836,65.849 130.354 C 65.354 130.819,64.716 131.200,64.432 131.200 C 64.148 131.200,63.350 131.648,62.658 132.196 C 61.966 132.745,60.966 133.510,60.436 133.896 C 59.123 134.855,54.800 139.258,54.800 139.637 C 54.800 139.805,54.555 140.188,54.256 140.487 C 51.861 142.882,49.015 155.813,50.339 158.286 C 50.563 158.704,50.865 160.656,51.011 162.623 C 51.188 165.019,51.505 166.530,51.972 167.200 C 52.355 167.750,52.777 168.878,52.910 169.706 C 53.043 170.535,53.523 171.684,53.976 172.260 C 54.429 172.836,54.800 173.619,54.800 174.000 C 54.800 174.381,55.160 175.150,55.600 175.709 C 56.040 176.269,56.400 176.888,56.400 177.085 C 56.400 177.996,63.716 186.271,71.570 194.242 C 72.027 194.705,72.400 195.281,72.400 195.522 C 72.400 195.763,72.653 196.104,72.961 196.280 C 73.270 196.456,74.585 197.870,75.882 199.422 C 77.180 200.974,79.762 203.805,81.621 205.713 C 88.023 212.287,89.796 214.204,90.726 215.561 C 91.911 217.290,96.391 222.249,100.900 226.823 C 102.825 228.776,104.400 230.482,104.400 230.615 C 104.400 230.748,105.115 231.609,105.988 232.528 C 107.633 234.260,108.052 234.725,112.400 239.647 C 113.830 241.265,115.855 243.441,116.900 244.482 C 117.945 245.524,118.800 246.549,118.800 246.761 C 118.800 246.973,119.141 247.254,119.557 247.386 C 119.973 247.518,120.406 247.981,120.519 248.413 C 120.633 248.846,121.012 249.200,121.363 249.200 C 121.713 249.200,122.000 249.371,122.000 249.579 C 122.000 249.788,122.405 250.420,122.900 250.984 C 123.395 251.548,124.283 252.592,124.873 253.304 C 127.405 256.360,130.406 259.684,135.600 265.188 C 137.030 266.703,138.740 268.582,139.400 269.363 C 140.060 270.144,140.825 270.787,141.100 270.791 C 141.375 270.796,141.600 271.057,141.600 271.371 C 141.600 271.686,141.834 272.181,142.121 272.471 C 142.407 272.762,143.968 274.509,145.589 276.353 C 147.210 278.196,149.856 281.033,151.468 282.656 C 153.081 284.279,154.400 285.773,154.400 285.976 C 154.400 286.180,154.760 286.460,155.200 286.600 C 155.640 286.740,156.001 287.067,156.002 287.327 C 156.002 287.587,156.767 288.558,157.702 289.485 C 159.340 291.110,160.532 292.497,161.119 293.460 C 162.325 295.437,175.252 308.570,177.207 309.804 C 178.046 310.334,178.849 310.955,178.990 311.184 C 179.131 311.413,179.590 311.600,180.010 311.600 C 180.429 311.600,180.957 311.945,181.183 312.367 C 181.409 312.790,182.122 313.251,182.769 313.393 C 183.416 313.535,184.155 313.905,184.413 314.215 C 184.670 314.525,185.537 314.895,186.340 315.038 C 187.143 315.181,188.430 315.680,189.200 316.149 C 191.397 317.484,207.870 317.440,210.051 316.092 C 210.845 315.601,211.933 315.200,212.470 315.200 C 213.006 315.200,214.055 314.750,214.800 314.200 C 215.545 313.650,216.456 313.200,216.824 313.200 C 217.191 313.200,217.921 312.865,218.446 312.455 C 218.971 312.045,219.805 311.583,220.300 311.428 C 220.795 311.273,221.200 310.981,221.200 310.778 C 221.200 310.576,221.785 310.166,222.500 309.866 C 224.382 309.078,232.399 301.003,242.621 289.600 C 243.903 288.170,245.073 286.910,245.222 286.800 C 245.371 286.690,245.619 286.195,245.773 285.700 C 245.928 285.205,246.300 284.800,246.600 284.800 C 246.900 284.800,247.257 284.449,247.394 284.020 C 247.530 283.592,247.992 283.130,248.420 282.994 C 248.849 282.857,249.200 282.586,249.200 282.390 C 249.200 282.195,250.685 280.529,252.500 278.690 C 254.315 276.850,256.970 274.015,258.400 272.390 C 259.830 270.764,261.584 268.797,262.298 268.017 C 263.012 267.238,263.597 266.465,263.598 266.299 C 263.599 266.134,265.175 264.388,267.100 262.419 C 271.874 257.537,273.419 255.867,276.085 252.709 C 277.342 251.221,279.007 249.418,279.785 248.704 C 280.563 247.990,281.200 247.183,281.200 246.912 C 281.200 246.641,281.650 246.124,282.200 245.763 C 282.750 245.403,283.200 244.871,283.200 244.581 C 283.200 244.291,283.560 243.940,284.000 243.800 C 284.440 243.660,284.800 243.370,284.800 243.154 C 284.800 242.938,286.015 241.542,287.500 240.052 C 291.315 236.225,296.822 229.966,297.314 228.900 C 297.542 228.405,297.970 228.000,298.264 228.000 C 298.559 228.000,298.800 227.826,298.800 227.614 C 298.800 227.402,300.015 225.983,301.500 224.462 C 307.780 218.028,310.000 215.603,310.000 215.181 C 310.000 214.935,311.170 213.643,312.600 212.311 C 314.030 210.979,315.200 209.721,315.200 209.516 C 315.200 209.311,315.925 208.391,316.811 207.472 C 323.325 200.710,325.277 198.637,327.300 196.332 C 328.565 194.891,329.600 193.628,329.600 193.527 C 329.600 193.426,330.725 192.164,332.100 190.724 C 334.259 188.462,339.200 183.157,342.572 179.479 C 343.138 178.863,343.600 178.036,343.600 177.641 C 343.600 177.247,343.944 176.613,344.364 176.233 C 344.784 175.852,345.243 175.083,345.384 174.522 C 345.524 173.962,345.894 173.249,346.204 172.939 C 346.515 172.628,346.894 171.705,347.047 170.887 C 347.200 170.069,347.639 168.950,348.023 168.400 C 348.449 167.788,348.816 166.257,348.967 164.458 C 349.102 162.840,349.480 161.135,349.807 160.669 C 350.630 159.493,350.647 151.730,349.828 150.561 C 349.513 150.112,349.128 148.608,348.970 147.219 C 348.778 145.518,348.442 144.486,347.942 144.058 C 347.534 143.708,347.200 143.021,347.200 142.532 C 347.200 142.042,346.750 141.156,346.200 140.562 C 345.650 139.969,345.199 139.374,345.198 139.242 C 345.196 138.915,343.269 136.963,340.927 134.915 C 337.623 132.026,336.505 131.200,335.896 131.200 C 335.573 131.200,334.848 130.838,334.286 130.396 C 333.725 129.955,332.665 129.481,331.932 129.344 C 331.200 129.207,330.060 128.779,329.400 128.393 C 328.740 128.007,326.968 127.564,325.463 127.410 C 323.958 127.255,322.068 126.830,321.263 126.464 C 319.774 125.788,100.002 125.326,84.561 125.966 M322.730 127.511 C 325.662 128.011,328.452 128.664,328.930 128.962 C 329.409 129.259,330.342 129.601,331.005 129.722 C 334.472 130.355,342.529 136.305,345.123 140.148 C 346.549 142.260,348.400 146.132,348.400 147.002 C 348.400 147.360,348.784 149.268,349.253 151.241 C 349.998 154.375,350.048 155.144,349.651 157.315 C 349.401 158.682,348.941 161.330,348.630 163.200 C 348.319 165.070,347.781 167.140,347.435 167.800 C 347.088 168.460,346.804 169.274,346.802 169.609 C 346.799 170.486,342.907 177.956,341.707 179.388 C 340.800 180.472,335.962 185.738,330.703 191.369 C 329.659 192.486,328.579 193.679,328.303 194.019 C 327.228 195.344,324.502 198.382,320.636 202.568 C 318.416 204.971,316.150 207.448,315.600 208.073 C 315.050 208.699,313.385 210.485,311.900 212.042 C 310.415 213.599,309.200 214.992,309.200 215.138 C 309.200 215.284,308.255 216.404,307.100 217.628 C 303.665 221.267,297.453 228.028,295.180 230.600 C 294.013 231.920,292.926 233.091,292.763 233.203 C 292.600 233.315,291.952 234.054,291.322 234.847 C 290.692 235.639,288.472 238.129,286.388 240.380 C 284.305 242.630,282.150 244.959,281.600 245.556 C 281.050 246.152,279.520 247.870,278.200 249.373 C 276.880 250.877,275.614 252.308,275.387 252.553 C 275.159 252.799,272.999 255.154,270.587 257.786 C 268.174 260.419,265.930 262.859,265.600 263.209 C 265.270 263.559,263.830 265.170,262.400 266.789 C 260.970 268.407,259.504 270.017,259.143 270.366 C 258.782 270.715,257.823 271.799,257.012 272.775 C 256.202 273.750,253.318 276.900,250.604 279.775 C 247.889 282.649,245.158 285.642,244.534 286.426 C 243.910 287.210,242.475 288.830,241.344 290.026 C 240.214 291.222,237.964 293.728,236.344 295.595 C 222.831 311.175,213.361 316.547,199.400 316.554 C 185.860 316.560,176.749 310.980,162.556 293.987 C 160.992 292.115,159.012 289.852,158.156 288.959 C 156.778 287.520,155.176 285.780,147.000 276.841 C 144.308 273.897,144.180 273.756,141.200 270.416 C 139.770 268.814,138.150 267.013,137.600 266.415 C 137.050 265.816,133.540 261.924,129.800 257.767 C 126.060 253.609,121.639 248.766,119.975 247.004 C 118.311 245.242,116.601 243.361,116.175 242.825 C 115.749 242.289,114.140 240.483,112.600 238.812 C 111.060 237.141,108.360 234.162,106.600 232.192 C 104.840 230.222,102.050 227.158,100.400 225.383 C 95.226 219.818,91.012 215.125,90.691 214.571 C 90.521 214.278,89.554 213.174,88.543 212.119 C 84.545 207.947,78.419 201.312,77.093 199.719 C 76.324 198.794,75.448 197.784,75.147 197.474 C 74.846 197.164,73.430 195.594,72.000 193.985 C 70.570 192.376,69.053 190.698,68.628 190.258 C 68.204 189.817,65.965 187.374,63.653 184.828 C 61.342 182.283,59.348 180.110,59.223 180.000 C 57.900 178.837,53.949 171.385,53.364 168.949 C 53.212 168.317,52.818 167.266,52.489 166.614 C 50.521 162.714,50.629 149.495,52.667 144.886 C 54.537 140.659,57.650 136.558,60.400 134.701 C 60.950 134.330,62.161 133.488,63.090 132.829 C 65.111 131.399,68.815 129.600,69.740 129.600 C 70.105 129.600,71.075 129.240,71.896 128.800 C 72.716 128.360,73.931 127.992,74.594 127.983 C 75.257 127.973,77.600 127.634,79.800 127.228 C 83.634 126.521,88.659 126.492,200.600 126.545 L 317.400 126.600 322.730 127.511 M398.609 366.117 C 398.306 366.842,397.933 368.597,397.779 370.017 C 397.625 371.438,397.268 372.870,396.987 373.200 C 396.705 373.530,396.276 374.544,396.034 375.453 C 395.792 376.363,395.326 377.330,394.997 377.602 C 394.669 377.875,394.400 378.401,394.400 378.771 C 394.400 379.142,393.950 380.055,393.400 380.800 C 392.850 381.545,392.400 382.389,392.400 382.674 C 392.400 382.960,392.040 383.418,391.600 383.693 C 391.160 383.968,390.800 384.332,390.800 384.503 C 390.800 384.958,384.882 390.800,384.421 390.800 C 384.205 390.800,383.835 391.160,383.600 391.600 C 383.365 392.040,382.943 392.400,382.664 392.400 C 382.384 392.400,381.545 392.850,380.800 393.400 C 380.055 393.950,379.142 394.400,378.771 394.400 C 378.401 394.400,377.875 394.669,377.602 394.997 C 377.330 395.326,376.363 395.792,375.453 396.034 C 374.544 396.276,373.530 396.705,373.200 396.987 C 372.870 397.268,371.438 397.625,370.017 397.779 C 365.811 398.234,362.777 400.000,366.200 400.000 C 367.143 400.000,367.600 399.815,367.600 399.432 C 367.600 398.877,368.114 398.706,371.400 398.163 C 373.580 397.803,380.478 394.675,382.031 393.342 C 382.379 393.044,382.875 392.800,383.134 392.800 C 385.172 392.800,395.027 380.674,396.211 376.711 C 396.361 376.210,396.746 375.385,397.066 374.877 C 397.387 374.369,397.894 372.667,398.194 371.094 C 398.499 369.490,399.016 368.032,399.369 367.773 C 400.069 367.261,400.243 364.800,399.580 364.800 C 399.348 364.800,398.912 365.393,398.609 366.117 M0.000 366.800 C 0.000 367.569,0.204 368.000,0.567 368.000 C 1.055 368.000,2.000 370.933,2.000 372.445 C 2.000 372.669,2.450 373.835,3.000 375.037 C 3.550 376.240,4.000 377.289,4.000 377.369 C 4.000 381.124,18.876 396.000,22.631 396.000 C 22.711 396.000,23.727 396.428,24.888 396.950 C 26.050 397.473,27.720 398.019,28.600 398.164 C 31.882 398.704,32.400 398.877,32.400 399.432 C 32.400 399.815,32.857 400.000,33.800 400.000 C 37.088 400.000,34.313 398.290,30.200 397.781 C 28.880 397.618,27.440 397.255,27.000 396.975 C 26.560 396.695,25.456 396.269,24.547 396.030 C 23.637 395.790,22.670 395.326,22.398 394.997 C 22.125 394.669,21.599 394.400,21.229 394.400 C 20.858 394.400,19.945 393.950,19.200 393.400 C 18.455 392.850,17.611 392.400,17.326 392.400 C 17.040 392.400,16.582 392.040,16.307 391.600 C 16.032 391.160,15.657 390.800,15.474 390.800 C 14.882 390.800,7.961 383.477,7.364 382.218 C 6.844 381.123,6.097 379.711,5.132 378.000 C 4.946 377.670,4.600 376.950,4.363 376.400 C 4.126 375.850,3.600 374.680,3.193 373.800 C 2.787 372.920,2.342 371.210,2.203 370.000 C 1.765 366.170,0.000 363.606,0.000 366.800 " stroke="none" fill="#525252" fill-rule="evenodd"></path><path id="path4" d="M31.632 0.313 C 31.614 0.595,31.195 0.989,30.700 1.188 C 30.197 1.390,30.065 1.558,30.400 1.569 C 31.334 1.598,32.120 0.949,31.880 0.346 C 31.718 -0.063,31.655 -0.071,31.632 0.313 M11.389 11.700 L 8.600 14.600 11.500 11.811 C 14.194 9.220,14.583 8.800,14.289 8.800 C 14.228 8.800,12.923 10.105,11.389 11.700 M387.600 11.000 C 388.795 12.210,389.863 13.200,389.973 13.200 C 390.083 13.200,389.195 12.210,388.000 11.000 C 386.805 9.790,385.737 8.800,385.627 8.800 C 385.517 8.800,386.405 9.790,387.600 11.000 M1.200 30.513 C 1.200 30.869,0.885 31.344,0.500 31.568 C -0.139 31.940,-0.141 31.977,0.473 31.988 C 1.145 32.000,1.885 30.552,1.437 30.103 C 1.306 29.973,1.200 30.158,1.200 30.513 M141.932 126.700 C 174.125 126.756,226.685 126.756,258.732 126.700 C 290.780 126.644,264.440 126.597,200.200 126.597 C 135.960 126.597,109.740 126.644,141.932 126.700 M56.575 138.268 C 55.959 139.076,55.659 139.611,55.909 139.456 C 56.421 139.140,58.153 136.800,57.875 136.800 C 57.776 136.800,57.191 137.461,56.575 138.268 M343.999 139.100 C 344.522 139.815,345.013 140.400,345.089 140.400 C 345.393 140.400,344.401 138.900,343.745 138.367 C 343.313 138.016,343.410 138.296,343.999 139.100 M50.920 155.600 C 50.920 156.810,50.995 157.305,51.087 156.700 C 51.178 156.095,51.178 155.105,51.087 154.500 C 50.995 153.895,50.920 154.390,50.920 155.600 M349.709 155.200 C 349.709 156.190,349.787 156.595,349.882 156.100 C 349.978 155.605,349.978 154.795,349.882 154.300 C 349.787 153.805,349.709 154.210,349.709 155.200 M339.200 181.800 C 338.228 182.790,337.523 183.600,337.633 183.600 C 337.743 183.600,338.628 182.790,339.600 181.800 C 340.572 180.810,341.277 180.000,341.167 180.000 C 341.057 180.000,340.172 180.810,339.200 181.800 M61.583 182.500 C 62.564 183.545,63.419 184.400,63.483 184.400 C 63.784 184.400,63.466 184.041,61.700 182.383 L 59.800 180.600 61.583 182.500 M64.800 186.200 C 65.546 186.970,66.247 187.600,66.357 187.600 C 66.467 187.600,65.946 186.970,65.200 186.200 C 64.454 185.430,63.753 184.800,63.643 184.800 C 63.533 184.800,64.054 185.430,64.800 186.200 M326.175 196.100 L 325.000 197.400 326.300 196.225 C 327.015 195.579,327.600 194.994,327.600 194.925 C 327.600 194.616,327.270 194.888,326.175 196.100 M323.200 199.400 C 322.228 200.390,321.523 201.200,321.633 201.200 C 321.743 201.200,322.628 200.390,323.600 199.400 C 324.572 198.410,325.277 197.600,325.167 197.600 C 325.057 197.600,324.172 198.410,323.200 199.400 M79.800 202.800 C 80.883 203.900,81.860 204.800,81.970 204.800 C 82.080 204.800,81.283 203.900,80.200 202.800 C 79.117 201.700,78.140 200.800,78.030 200.800 C 77.920 200.800,78.717 201.700,79.800 202.800 M83.200 206.525 C 83.200 206.594,83.785 207.179,84.500 207.825 L 85.800 209.000 84.625 207.700 C 83.530 206.488,83.200 206.216,83.200 206.525 M92.200 216.400 C 93.059 217.280,93.852 218.000,93.962 218.000 C 94.072 218.000,93.459 217.280,92.600 216.400 C 91.741 215.520,90.948 214.800,90.838 214.800 C 90.728 214.800,91.341 215.520,92.200 216.400 M303.381 221.300 L 301.800 223.000 303.500 221.419 C 305.081 219.948,305.384 219.600,305.081 219.600 C 305.016 219.600,304.251 220.365,303.381 221.300 M99.400 224.400 C 100.483 225.500,101.460 226.400,101.570 226.400 C 101.680 226.400,100.883 225.500,99.800 224.400 C 98.717 223.300,97.740 222.400,97.630 222.400 C 97.520 222.400,98.317 223.300,99.400 224.400 M112.400 238.600 C 113.817 240.030,115.067 241.200,115.177 241.200 C 115.287 241.200,114.217 240.030,112.800 238.600 C 111.383 237.170,110.133 236.000,110.023 236.000 C 109.913 236.000,110.983 237.170,112.400 238.600 M288.778 237.500 L 287.400 239.000 288.900 237.622 C 290.296 236.338,290.584 236.000,290.278 236.000 C 290.212 236.000,289.537 236.675,288.778 237.500 M119.000 246.000 C 120.083 247.100,121.060 248.000,121.170 248.000 C 121.280 248.000,120.483 247.100,119.400 246.000 C 118.317 244.900,117.340 244.000,117.230 244.000 C 117.120 244.000,117.917 244.900,119.000 246.000 M272.778 255.100 L 271.400 256.600 272.900 255.222 C 274.296 253.938,274.584 253.600,274.278 253.600 C 274.212 253.600,273.537 254.275,272.778 255.100 M131.000 259.200 C 132.083 260.300,133.060 261.200,133.170 261.200 C 133.280 261.200,132.483 260.300,131.400 259.200 C 130.317 258.100,129.340 257.200,129.230 257.200 C 129.120 257.200,129.917 258.100,131.000 259.200 M268.975 259.300 L 267.800 260.600 269.100 259.425 C 269.815 258.779,270.400 258.194,270.400 258.125 C 270.400 257.816,270.070 258.088,268.975 259.300 M133.200 261.725 C 133.200 261.794,133.785 262.379,134.500 263.025 L 135.800 264.200 134.625 262.900 C 133.530 261.688,133.200 261.416,133.200 261.725 M263.775 264.900 L 262.600 266.200 263.900 265.025 C 264.615 264.379,265.200 263.794,265.200 263.725 C 265.200 263.416,264.870 263.688,263.775 264.900 M253.785 276.100 L 251.800 278.200 253.900 276.215 C 255.851 274.371,256.183 274.000,255.885 274.000 C 255.822 274.000,254.877 274.945,253.785 276.100 M146.783 276.500 C 148.441 278.266,148.800 278.584,148.800 278.283 C 148.800 278.219,147.945 277.364,146.900 276.383 L 145.000 274.600 146.783 276.500 M150.000 280.200 C 150.746 280.970,151.447 281.600,151.557 281.600 C 151.667 281.600,151.146 280.970,150.400 280.200 C 149.654 279.430,148.953 278.800,148.843 278.800 C 148.733 278.800,149.254 279.430,150.000 280.200 M247.775 282.500 L 246.600 283.800 247.900 282.625 C 248.615 281.979,249.200 281.394,249.200 281.325 C 249.200 281.016,248.870 281.288,247.775 282.500 M154.600 285.200 C 155.683 286.300,156.660 287.200,156.770 287.200 C 156.880 287.200,156.083 286.300,155.000 285.200 C 153.917 284.100,152.940 283.200,152.830 283.200 C 152.720 283.200,153.517 284.100,154.600 285.200 M165.000 296.800 C 166.083 297.900,167.060 298.800,167.170 298.800 C 167.280 298.800,166.483 297.900,165.400 296.800 C 164.317 295.700,163.340 294.800,163.230 294.800 C 163.120 294.800,163.917 295.700,165.000 296.800 M234.400 297.400 C 233.428 298.390,232.723 299.200,232.833 299.200 C 232.943 299.200,233.828 298.390,234.800 297.400 C 235.772 296.410,236.477 295.600,236.367 295.600 C 236.257 295.600,235.372 296.410,234.400 297.400 M169.800 302.000 C 171.328 303.540,172.669 304.800,172.779 304.800 C 172.889 304.800,171.728 303.540,170.200 302.000 C 168.672 300.460,167.331 299.200,167.221 299.200 C 167.111 299.200,168.272 300.460,169.800 302.000 M197.500 316.693 C 198.435 316.777,199.965 316.777,200.900 316.693 C 201.835 316.609,201.070 316.540,199.200 316.540 C 197.330 316.540,196.565 316.609,197.500 316.693 M398.814 368.374 C 398.586 368.799,398.411 369.384,398.425 369.674 C 398.439 369.963,398.613 369.795,398.812 369.300 C 399.011 368.805,399.360 368.400,399.587 368.400 C 399.814 368.400,400.000 368.220,400.000 368.000 C 400.000 367.322,399.251 367.558,398.814 368.374 M11.400 388.400 C 12.706 389.720,13.865 390.800,13.975 390.800 C 14.085 390.800,13.106 389.720,11.800 388.400 C 10.494 387.080,9.335 386.000,9.225 386.000 C 9.115 386.000,10.094 387.080,11.400 388.400 M388.585 388.100 L 386.600 390.200 388.700 388.215 C 390.651 386.371,390.983 386.000,390.685 386.000 C 390.622 386.000,389.677 386.945,388.585 388.100 M31.600 399.400 C 31.600 399.730,31.780 400.000,32.000 400.000 C 32.220 400.000,32.400 399.730,32.400 399.400 C 32.400 399.070,32.220 398.800,32.000 398.800 C 31.780 398.800,31.600 399.070,31.600 399.400 M367.600 399.400 C 367.600 399.730,367.780 400.000,368.000 400.000 C 368.220 400.000,368.400 399.730,368.400 399.400 C 368.400 399.070,368.220 398.800,368.000 398.800 C 367.780 398.800,367.600 399.070,367.600 399.400 " stroke="none" fill="#7c7c7c" fill-rule="evenodd"></path></g></svg>